<svg xmlns="http://www.w3.org/2000/svg" viewBox="0 0 640 360" width="640" height="360" role="img" aria-label="Final test: animals lost vs events filtered">
<title>Final test: animals lost vs events filtered</title><style>
.bg{fill:#fcfcfb}.t1{fill:#0b0b0b}.t2{fill:#52514e}.grid{stroke:#e6e5e1}.axis{stroke:#8a8983}
.l1{stroke:#2a78d6;fill:none}.l2{stroke:#eb6834;fill:none}.m1{fill:#2a78d6}.m2{fill:#eb6834}
.band{fill:#2a78d6;opacity:.14}
.target{stroke:#52514e}.ring{stroke:#fcfcfb}
@media (prefers-color-scheme: dark){
.bg{fill:#1a1a19}.t1{fill:#ffffff}.t2{fill:#c3c2b7}.grid{stroke:#333331}.axis{stroke:#6f6e69}
.l1{stroke:#3987e5;fill:none}.l2{stroke:#d95926;fill:none}.m1{fill:#3987e5}.m2{fill:#d95926}
.band{fill:#3987e5;opacity:.2}
.target{stroke:#c3c2b7}.ring{stroke:#1a1a19}}
text{font-family:-apple-system,Segoe UI,Helvetica,Arial,sans-serif}
</style>
<rect class="bg" width="640" height="360"/>
<text class="t1" x="64" y="24" font-size="15" font-weight="600">Final test: animals lost vs events filtered</text>
<line class="grid" x1="64" x2="490" y1="308.0" y2="308.0"/><text class="t2" x="56" y="312.0" font-size="11" text-anchor="end">0%</text>
<text class="t2" x="64.0" y="326" font-size="11" text-anchor="middle">0%</text>
<line class="grid" x1="64" x2="490" y1="242.0" y2="242.0"/><text class="t2" x="56" y="246.0" font-size="11" text-anchor="end">1.25%</text>
<text class="t2" x="170.5" y="326" font-size="11" text-anchor="middle">3.75%</text>
<line class="grid" x1="64" x2="490" y1="176.0" y2="176.0"/><text class="t2" x="56" y="180.0" font-size="11" text-anchor="end">2.5%</text>
<text class="t2" x="277.0" y="326" font-size="11" text-anchor="middle">7.5%</text>
<line class="grid" x1="64" x2="490" y1="110.0" y2="110.0"/><text class="t2" x="56" y="114.0" font-size="11" text-anchor="end">3.75%</text>
<text class="t2" x="383.5" y="326" font-size="11" text-anchor="middle">11.25%</text>
<line class="grid" x1="64" x2="490" y1="44.0" y2="44.0"/><text class="t2" x="56" y="48.0" font-size="11" text-anchor="end">5%</text>
<text class="t2" x="490.0" y="326" font-size="11" text-anchor="middle">15%</text>
<line class="axis" x1="64" x2="490" y1="308" y2="308"/>
<text class="t2" x="277.0" y="348" font-size="12" text-anchor="middle">Events filtered automatically (coverage)</text><text class="t2" transform="translate(16 176.0) rotate(-90)" font-size="12" text-anchor="middle">Animal events filtered as empty</text>
<line class="target" x1="64" x2="490" y1="202.4" y2="202.4" stroke-width="1.5" stroke-dasharray="5 4"/><text class="t2" x="496" y="206.4" font-size="11">target 2%</text>
<polygon class="band" points="64.0,305.2 64.0,305.2 64.0,305.2 64.3,305.2 66.5,305.2 68.4,305.2 70.0,305.2 72.2,305.2 73.8,305.2 75.7,305.2 77.3,305.2 79.2,305.2 83.6,303.8 86.4,303.8 90.9,303.8 93.1,303.8 99.4,302.6 102.3,301.5 106.7,301.5 112.7,300.4 118.7,298.3 123.1,297.3 130.4,294.4 136.4,292.5 145.3,288.8 152.2,284.3 160.1,280.8 166.1,280.8 172.8,278.2 180.0,272.1 190.2,264.5 196.5,261.9 208.2,256.1 216.4,251.9 223.4,248.6 233.5,243.6 242.3,238.7 251.5,233.0 263.8,225.7 273.0,217.6 284.4,211.1 297.7,200.7 312.8,190.3 323.3,183.1 330.5,178.4 341.6,171.2 353.6,162.5 365.6,153.8 375.8,148.3 385.2,138.8 400.4,128.6 413.7,123.1 413.7,165.5 400.4,170.3 385.2,179.3 375.8,187.5 365.6,192.3 353.6,199.9 341.6,207.4 330.5,213.5 323.3,217.6 312.8,223.7 297.7,232.5 284.4,241.2 273.0,246.6 263.8,253.2 251.5,259.2 242.3,263.8 233.5,267.7 223.4,271.6 216.4,274.2 208.2,277.4 196.5,281.9 190.2,283.8 180.0,289.4 172.8,293.7 166.1,295.5 160.1,295.5 152.2,297.9 145.3,300.7 136.4,302.9 130.4,304.0 123.1,305.5 118.7,306.0 112.7,306.9 106.7,307.2 102.3,307.2 99.4,307.6 93.1,307.9 90.9,307.9 86.4,307.9 83.6,307.9 79.2,308.0 77.3,308.0 75.7,308.0 73.8,308.0 72.2,308.0 70.0,308.0 68.4,308.0 66.5,308.0 64.3,308.0 64.0,308.0 64.0,308.0 64.0,308.0"/>
<polyline class="l1" points="64.0,308.0 64.0,308.0 64.0,308.0 64.3,308.0 66.5,308.0 68.4,308.0 70.0,308.0 72.2,308.0 73.8,308.0 75.7,308.0 77.3,308.0 79.2,308.0 83.6,307.3 86.4,307.3 90.9,307.3 93.1,307.3 99.4,306.5 102.3,305.8 106.7,305.8 112.7,305.0 118.7,303.6 123.1,302.8 130.4,300.6 136.4,299.1 145.3,296.2 152.2,292.5 160.1,289.5 166.1,289.5 172.8,287.3 180.0,282.2 190.2,275.5 196.5,273.3 208.2,268.1 216.4,264.5 223.4,261.5 233.5,257.1 242.3,252.6 251.5,247.5 263.8,240.8 273.0,233.5 284.4,227.6 297.7,218.0 312.8,208.4 323.3,201.7 330.5,197.3 341.6,190.7 353.6,182.5 365.6,174.4 375.8,169.2 385.2,160.4 400.4,150.8 413.7,145.6" stroke-width="2"/>
<circle class="m1 ring" cx="64.0" cy="308.0" r="4" stroke-width="2"><title>final test (9 cameras) · threshold 0.99 · coverage 0.0% · error 0.0%</title></circle>
<circle class="m1 ring" cx="70.0" cy="308.0" r="4" stroke-width="2"><title>final test (9 cameras) · threshold 0.95 · coverage 0.2% · error 0.0%</title></circle>
<circle class="m1 ring" cx="79.2" cy="308.0" r="4" stroke-width="2"><title>final test (9 cameras) · threshold 0.9 · coverage 0.5% · error 0.0%</title></circle>
<circle class="m1 ring" cx="123.1" cy="302.8" r="4" stroke-width="2"><title>final test (9 cameras) · threshold 0.8 · coverage 2.1% · error 0.1%</title></circle>
<circle class="m1 ring" cx="196.5" cy="273.3" r="4" stroke-width="2"><title>final test (9 cameras) · threshold 0.7 · coverage 4.7% · error 0.7%</title></circle>
<circle class="m1 ring" cx="242.3" cy="252.6" r="4" stroke-width="2"><title>final test (9 cameras) · threshold 0.65 · coverage 6.3% · error 1.0%</title></circle>
<circle class="m1 ring" cx="297.7" cy="218.0" r="4" stroke-width="2"><title>final test (9 cameras) · threshold 0.6 · coverage 8.2% · error 1.7%</title></circle>
<circle class="m1 ring" cx="413.7" cy="145.6" r="4" stroke-width="2"><title>final test (9 cameras) · threshold 0.5 · coverage 12.3% · error 3.1%</title></circle>
<polyline class="l2" points="64.0,308.0 64.0,308.0 64.0,308.0 64.0,308.0 64.0,308.0 70.0,308.0 79.1,308.0 82.1,308.0 88.2,308.0 88.2,308.0 91.2,308.0 91.2,308.0 103.3,301.8 103.3,301.8 106.3,301.8 106.3,301.8 106.3,301.8 112.4,301.8 112.4,301.8 118.4,301.8 121.5,301.8 124.5,295.6 130.5,295.6 133.6,295.6 133.6,295.6 136.6,289.4 136.6,289.4 139.6,289.4 139.6,289.4 148.7,283.2 151.7,283.2 163.8,264.7 172.9,252.3 178.9,252.3 178.9,252.3 178.9,252.3 178.9,252.3 194.1,239.9 200.1,239.9 209.2,227.5 212.2,227.5 215.2,227.5 215.2,227.5 218.2,227.5 224.3,221.3 239.4,196.6 248.5,178.0 260.6,159.4 278.7,128.5 290.8,109.9 299.9,91.4 302.9,85.2" stroke-width="2"/>
<circle class="m2 ring" cx="64.0" cy="308.0" r="4" stroke-width="2"><title>policy validation (dev) · threshold 0.99 · coverage 0.0% · error 0.0%</title></circle>
<circle class="m2 ring" cx="79.1" cy="308.0" r="4" stroke-width="2"><title>policy validation (dev) · threshold 0.95 · coverage 0.5% · error 0.0%</title></circle>
<circle class="m2 ring" cx="91.2" cy="308.0" r="4" stroke-width="2"><title>policy validation (dev) · threshold 0.9 · coverage 1.0% · error 0.0%</title></circle>
<circle class="m2 ring" cx="124.5" cy="295.6" r="4" stroke-width="2"><title>policy validation (dev) · threshold 0.8 · coverage 2.1% · error 0.2%</title></circle>
<circle class="m2 ring" cx="163.8" cy="264.7" r="4" stroke-width="2"><title>policy validation (dev) · threshold 0.7 · coverage 3.5% · error 0.8%</title></circle>
<circle class="m2 ring" cx="178.9" cy="252.3" r="4" stroke-width="2"><title>policy validation (dev) · threshold 0.65 · coverage 4.0% · error 1.1%</title></circle>
<circle class="m2 ring" cx="215.2" cy="227.5" r="4" stroke-width="2"><title>policy validation (dev) · threshold 0.6 · coverage 5.3% · error 1.5%</title></circle>
<circle class="m2 ring" cx="302.9" cy="85.2" r="4" stroke-width="2"><title>policy validation (dev) · threshold 0.5 · coverage 8.4% · error 4.2%</title></circle>
<text class="t1" x="496" y="89.2" font-size="11">policy validation (dev)</text>
<text class="t1" x="496" y="149.6" font-size="11">final test (9 cameras)</text>
<circle class="m1 ring" cx="242.3" cy="252.6" r="7" stroke-width="2"/><text class="t1" x="252.3" y="272.6" font-size="11">rule: 0.65</text>
<line class="l1" x1="64" x2="80" y1="36" y2="36" stroke-width="2"/><text class="t2" x="84" y="40" font-size="11">final test (9 cameras)</text>
<line class="l2" x1="248" x2="264" y1="36" y2="36" stroke-width="2"/><text class="t2" x="268" y="40" font-size="11">policy validation (dev)</text>
</svg>
